# xmcd CD database file
#
# Track frame offsets:
#	150
#	4972
#	22274
#	40499
#	57749
#	97949
#
# Disc length: 1735 seconds
#
# Revision: 0
# Processed by: cddbd v1.5.2PL0 Copyright (c) Steve Scherf et al.
# Submitted via: CDex 1.70beta2
#
DISCID=4f06c506
DTITLE=Demetori - Shout at The Devil
DYEAR=2006
DGENRE=東方アレンジ
TTITLE0=OPENING ～ The Introduction
TTITLE1=オリエンタルダークフライト
TTITLE2=風の循環 ～ Wind Tour
TTITLE3=恋色マスタースパーク
TTITLE4=無何有の郷 ～ Deep Mountain
TTITLE5=紅楼 ～ Eastern Dream (Acoustic Demo)
EXTD=YEAR: 2006
EXTT0=
EXTT1=
EXTT2=
EXTT3=
EXTT4=
EXTT5=
PLAYORDER=
